<svg width="35" height="36" viewBox="0 0 35 36" fill="none" xmlns="http://www.w3.org/2000/svg">
<path fill-rule="evenodd" clip-rule="evenodd" d="M28.0101 9.55188C28.2757 9.27683 28.4227 8.90845 28.4194 8.52608C28.4161 8.14371 28.2627 7.77794 27.9923 7.50756C27.7219 7.23717 27.3561 7.0838 26.9738 7.08048C26.5914 7.07715 26.223 7.22415 25.948 7.48979L17.4999 15.9379L9.05173 7.48979C8.77668 7.22415 8.40831 7.07715 8.02594 7.08048C7.64356 7.0838 7.2778 7.23717 7.00741 7.50756C6.73702 7.77794 6.58365 8.14371 6.58033 8.52608C6.57701 8.90845 6.724 9.27683 6.98965 9.55188L15.4378 18L6.98965 26.4481C6.85036 26.5827 6.73926 26.7436 6.66283 26.9215C6.5864 27.0994 6.54617 27.2908 6.54449 27.4844C6.54281 27.6781 6.5797 27.8701 6.65303 28.0493C6.72636 28.2285 6.83464 28.3914 6.97157 28.5283C7.1085 28.6652 7.27132 28.7735 7.45055 28.8468C7.62977 28.9202 7.8218 28.957 8.01544 28.9554C8.20908 28.9537 8.40044 28.9135 8.57836 28.837C8.75628 28.7606 8.9172 28.6495 9.05173 28.5102L17.4999 20.0621L25.948 28.5102C26.223 28.7759 26.5914 28.9228 26.9738 28.9195C27.3561 28.9162 27.7219 28.7628 27.9923 28.4924C28.2627 28.2221 28.4161 27.8563 28.4194 27.4739C28.4227 27.0915 28.2757 26.7232 28.0101 26.4481L19.5619 18L28.0101 9.55188Z" fill="#F1F3F5"/>
</svg>
