<svg width="35" height="36" viewBox="0 0 35 36" fill="none" xmlns="http://www.w3.org/2000/svg">
<path fill-rule="evenodd" clip-rule="evenodd" d="M33.25 7.5C33.25 7.96413 33.0656 8.40925 32.7374 8.73744C32.4093 9.06563 31.9641 9.25 31.5 9.25H3.5C3.03587 9.25 2.59075 9.06563 2.26256 8.73744C1.93437 8.40925 1.75 7.96413 1.75 7.5C1.75 7.03587 1.93437 6.59075 2.26256 6.26256C2.59075 5.93437 3.03587 5.75 3.5 5.75H31.5C31.9641 5.75 32.4093 5.93437 32.7374 6.26256C33.0656 6.59075 33.25 7.03587 33.25 7.5ZM33.25 18C33.25 18.4641 33.0656 18.9092 32.7374 19.2374C32.4093 19.5656 31.9641 19.75 31.5 19.75H3.5C3.03587 19.75 2.59075 19.5656 2.26256 19.2374C1.93437 18.9092 1.75 18.4641 1.75 18C1.75 17.5359 1.93437 17.0908 2.26256 16.7626C2.59075 16.4344 3.03587 16.25 3.5 16.25H31.5C31.9641 16.25 32.4093 16.4344 32.7374 16.7626C33.0656 17.0908 33.25 17.5359 33.25 18ZM31.5 30.25C31.9641 30.25 32.4093 30.0656 32.7374 29.7374C33.0656 29.4093 33.25 28.9641 33.25 28.5C33.25 28.0359 33.0656 27.5908 32.7374 27.2626C32.4093 26.9344 31.9641 26.75 31.5 26.75H3.5C3.03587 26.75 2.59075 26.9344 2.26256 27.2626C1.93437 27.5908 1.75 28.0359 1.75 28.5C1.75 28.9641 1.93437 29.4093 2.26256 29.7374C2.59075 30.0656 3.03587 30.25 3.5 30.25H31.5Z" fill="#F1F3F5"/>
</svg>
